<svg xmlns="http://www.w3.org/2000/svg" xmlns:xlink="http://www.w3.org/1999/xlink" width="500" zoomAndPan="magnify" viewBox="0 0 375 374.999991" height="500" preserveAspectRatio="xMidYMid meet" version="1.2"><defs/><g id="08d0459f55"><path style=" stroke:none;fill-rule:evenodd;fill:#E0F9FC;fill-opacity:1;" d="M 241.121094 56.5 L 266.375 31.25 L 344.5 109.375 L 319.246094 134.625 L 343.660156 159.042969 L 316.039062 186.664062 L 296.507812 167.132812 L 263.40625 200.234375 C 265.347656 208.699219 266.375 217.511719 266.375 226.5625 C 266.375 291.28125 213.910156 343.75 149.1875 343.75 C 84.464844 343.75 32 291.28125 32 226.5625 C 32 161.84375 84.464844 109.375 149.1875 109.375 C 158.238281 109.375 167.050781 110.402344 175.515625 112.34375 L 208.617188 79.242188 L 189.085938 59.710938 L 216.710938 32.089844 Z M 268.886719 139.511719 L 236.238281 106.863281 L 187.847656 155.253906 L 166.773438 150.417969 C 161.160156 149.128906 155.277344 148.4375 149.1875 148.4375 C 106.039062 148.4375 71.0625 183.414062 71.0625 226.5625 C 71.0625 269.710938 106.039062 304.6875 149.1875 304.6875 C 192.335938 304.6875 227.3125 269.710938 227.3125 226.5625 C 227.3125 220.472656 226.621094 214.589844 225.332031 208.976562 L 220.496094 187.902344 Z M 268.886719 139.511719 "/><g style="fill:#E0F9FC;fill-opacity:1;"><g transform="translate(111.103334, 248.500047)"><path style="stroke:none" d="M 10.1875 0 L 0.796875 0 L 14.53125 -23.875 L 1.453125 -46.40625 L 11.203125 -46.40625 L 20.828125 -29.765625 L 21.609375 -29.765625 L 31.390625 -46.40625 L 40.65625 -46.40625 L 27.578125 -23.875 L 41.328125 0 L 31.609375 0 L 21.296875 -17.90625 L 20.5 -17.90625 Z M 10.1875 0 "/></g></g><g style="fill:#E0F9FC;fill-opacity:1;"><g transform="translate(153.214968, 248.500047)"><path style="stroke:none" d="M 23.96875 -46.40625 C 27.289062 -46.40625 30.128906 -45.796875 32.484375 -44.578125 C 34.835938 -43.359375 36.617188 -41.65625 37.828125 -39.46875 C 39.035156 -37.28125 39.640625 -34.734375 39.640625 -31.828125 C 39.640625 -28.929688 39.035156 -26.394531 37.828125 -24.21875 C 36.617188 -22.039062 34.835938 -20.34375 32.484375 -19.125 C 30.128906 -17.90625 27.289062 -17.296875 23.96875 -17.296875 L 15.203125 -17.296875 L 15.203125 0 L 6.03125 0 L 6.03125 -46.40625 Z M 22.75 -24.5625 C 27.851562 -24.5625 30.40625 -26.984375 30.40625 -31.828125 C 30.40625 -36.703125 27.851562 -39.140625 22.75 -39.140625 L 15.203125 -39.140625 L 15.203125 -24.5625 Z M 22.75 -24.5625 "/></g></g></g></svg>