<svg xmlns="http://www.w3.org/2000/svg" xmlns:xlink="http://www.w3.org/1999/xlink" width="500" zoomAndPan="magnify" viewBox="0 0 375 374.999991" height="500" preserveAspectRatio="xMidYMid meet" version="1.2"><defs><clipPath id="228f787b4f"><path d="M 80 210 L 295 210 L 295 337.5 L 80 337.5 Z M 80 210 "/></clipPath><clipPath id="ba6c907d2c"><path d="M 80 37.5 L 295 37.5 L 295 165 L 80 165 Z M 80 37.5 "/></clipPath></defs><g id="29e48270bb"><g clip-rule="nonzero" clip-path="url(#228f787b4f)"><path style=" stroke:none;fill-rule:nonzero;fill:#E0F9FC;fill-opacity:1;" d="M 294.902344 337.175781 C 292.542969 335.636719 290.605469 334.398438 288.683594 333.109375 C 255.832031 311.230469 222.96875 289.363281 190.148438 267.402344 C 188.261719 266.136719 186.875 266.117188 184.988281 267.375 C 151.375 289.851562 117.730469 312.246094 84.082031 334.648438 C 82.949219 335.40625 81.796875 336.113281 80.402344 337.003906 C 80.316406 335.824219 80.191406 334.90625 80.191406 333.992188 C 80.175781 317.4375 80.214844 300.882812 80.136719 284.335938 C 80.125 282.027344 80.792969 280.886719 82.40625 279.8125 C 116.335938 257.28125 150.230469 234.671875 184.132812 212.082031 C 184.398438 211.90625 184.691406 211.789062 184.929688 211.570312 C 186.648438 209.957031 188.214844 210.171875 190.109375 211.46875 C 199.105469 217.617188 208.183594 223.574219 217.230469 229.597656 C 242.175781 246.210938 267.105469 262.859375 292.097656 279.378906 C 294.234375 280.792969 294.996094 282.359375 294.96875 285.363281 C 294.835938 301.175781 294.910156 316.988281 294.910156 332.796875 C 294.902344 334.019531 294.902344 335.246094 294.902344 337.175781 Z M 294.902344 337.175781 "/></g><path style=" stroke:none;fill-rule:nonzero;fill:#E0F9FC;fill-opacity:1;" d="M 187.542969 123.667969 C 223.320312 147.488281 259.042969 171.265625 294.785156 195.0625 C 294.785156 213.660156 294.785156 232.023438 294.785156 250.726562 C 293.910156 250.25 293.191406 249.9375 292.535156 249.5 C 271.101562 235.226562 249.671875 220.933594 228.226562 206.667969 C 220.328125 201.414062 212.382812 196.273438 204.484375 191.023438 C 199.488281 187.699219 194.519531 184.308594 189.578125 180.863281 C 188.246094 179.933594 187.125 179.726562 185.707031 180.707031 C 179.53125 184.953125 173.304688 189.074219 167.082031 193.21875 C 138.902344 211.996094 110.710938 230.757812 82.523438 249.527344 C 81.914062 249.933594 81.289062 250.289062 80.652344 250.683594 C 80.078125 248.027344 79.910156 200.15625 80.476562 194.941406 C 116.039062 171.257812 151.753906 147.492188 187.542969 123.667969 Z M 187.542969 123.667969 "/><g clip-rule="nonzero" clip-path="url(#ba6c907d2c)"><path style=" stroke:none;fill-rule:nonzero;fill:#E0F9FC;fill-opacity:1;" d="M 187.535156 37.480469 C 223.398438 61.371094 259.054688 85.121094 294.769531 108.910156 C 294.769531 127.402344 294.769531 145.769531 294.769531 164.71875 C 293.644531 164 292.792969 163.484375 291.960938 162.933594 C 259.101562 141.054688 226.246094 119.171875 193.378906 97.304688 C 191.457031 96.023438 189.46875 93.960938 187.515625 93.960938 C 185.558594 93.960938 183.578125 96.039062 181.652344 97.320312 C 148.96875 119.074219 116.289062 140.839844 83.605469 162.609375 C 82.652344 163.246094 81.675781 163.824219 80.6875 164.445312 C 80.015625 161.546875 79.765625 118.5625 80.34375 108.890625 C 115.898438 85.207031 151.628906 61.402344 187.535156 37.480469 Z M 187.535156 37.480469 "/></g></g></svg>