<svg xmlns="http://www.w3.org/2000/svg" xmlns:xlink="http://www.w3.org/1999/xlink" width="500" zoomAndPan="magnify" viewBox="0 0 375 374.999991" height="500" preserveAspectRatio="xMidYMid meet" version="1.2"><defs><clipPath id="89304665f5"><path d="M 181 217 L 198 217 L 198 234 L 181 234 Z M 181 217 "/></clipPath><clipPath id="555199374e"><path d="M 149.324219 -74.902344 L 449.902344 149.324219 L 225.675781 449.902344 L -74.902344 225.675781 Z M 149.324219 -74.902344 "/></clipPath><clipPath id="341d6fa0de"><path d="M 149.324219 -74.902344 L 449.902344 149.324219 L 225.675781 449.902344 L -74.902344 225.675781 Z M 149.324219 -74.902344 "/></clipPath><clipPath id="075768caa7"><path d="M 149.324219 -74.902344 L 449.902344 149.324219 L 225.675781 449.902344 L -74.902344 225.675781 Z M 149.324219 -74.902344 "/></clipPath><clipPath id="9b1f07aaa1"><path d="M 182 197 L 198 197 L 198 213 L 182 213 Z M 182 197 "/></clipPath><clipPath id="5e6e45d112"><path d="M 149.324219 -74.902344 L 449.902344 149.324219 L 225.675781 449.902344 L -74.902344 225.675781 Z M 149.324219 -74.902344 "/></clipPath><clipPath id="f70c9cdf0c"><path d="M 149.324219 -74.902344 L 449.902344 149.324219 L 225.675781 449.902344 L -74.902344 225.675781 Z M 149.324219 -74.902344 "/></clipPath><clipPath id="2a44687e3c"><path d="M 149.324219 -74.902344 L 449.902344 149.324219 L 225.675781 449.902344 L -74.902344 225.675781 Z M 149.324219 -74.902344 "/></clipPath><clipPath id="fe97aa8928"><path d="M 158 206 L 177 206 L 177 225 L 158 225 Z M 158 206 "/></clipPath><clipPath id="8adf653597"><path d="M 149.324219 -74.902344 L 449.902344 149.324219 L 225.675781 449.902344 L -74.902344 225.675781 Z M 149.324219 -74.902344 "/></clipPath><clipPath id="c171e72fbb"><path d="M 149.324219 -74.902344 L 449.902344 149.324219 L 225.675781 449.902344 L -74.902344 225.675781 Z M 149.324219 -74.902344 "/></clipPath><clipPath id="11445f632f"><path d="M 149.324219 -74.902344 L 449.902344 149.324219 L 225.675781 449.902344 L -74.902344 225.675781 Z M 149.324219 -74.902344 "/></clipPath><clipPath id="3d4f005332"><path d="M 76 307 L 94 307 L 94 324 L 76 324 Z M 76 307 "/></clipPath><clipPath id="a61b3f395f"><path d="M 149.324219 -74.902344 L 449.902344 149.324219 L 225.675781 449.902344 L -74.902344 225.675781 Z M 149.324219 -74.902344 "/></clipPath><clipPath id="9b53e5f3c0"><path d="M 149.324219 -74.902344 L 449.902344 149.324219 L 225.675781 449.902344 L -74.902344 225.675781 Z M 149.324219 -74.902344 "/></clipPath><clipPath id="70ce9f363c"><path d="M 149.324219 -74.902344 L 449.902344 149.324219 L 225.675781 449.902344 L -74.902344 225.675781 Z M 149.324219 -74.902344 "/></clipPath><clipPath id="a565cf1667"><path d="M 193 98 L 234 98 L 234 147 L 193 147 Z M 193 98 "/></clipPath><clipPath id="363a516fe5"><path d="M 149.324219 -74.902344 L 449.902344 149.324219 L 225.675781 449.902344 L -74.902344 225.675781 Z M 149.324219 -74.902344 "/></clipPath><clipPath id="cf2b43b4fd"><path d="M 149.324219 -74.902344 L 449.902344 149.324219 L 225.675781 449.902344 L -74.902344 225.675781 Z M 149.324219 -74.902344 "/></clipPath><clipPath id="f08a31328a"><path d="M 149.324219 -74.902344 L 449.902344 149.324219 L 225.675781 449.902344 L -74.902344 225.675781 Z M 149.324219 -74.902344 "/></clipPath><clipPath id="52163de043"><path d="M 178 149 L 195 149 L 195 167 L 178 167 Z M 178 149 "/></clipPath><clipPath id="7dc8deb0dc"><path d="M 149.324219 -74.902344 L 449.902344 149.324219 L 225.675781 449.902344 L -74.902344 225.675781 Z M 149.324219 -74.902344 "/></clipPath><clipPath id="206947dac8"><path d="M 149.324219 -74.902344 L 449.902344 149.324219 L 225.675781 449.902344 L -74.902344 225.675781 Z M 149.324219 -74.902344 "/></clipPath><clipPath id="d4993b64b5"><path d="M 149.324219 -74.902344 L 449.902344 149.324219 L 225.675781 449.902344 L -74.902344 225.675781 Z M 149.324219 -74.902344 "/></clipPath><clipPath id="5227829e71"><path d="M 223 21 L 325 21 L 325 117 L 223 117 Z M 223 21 "/></clipPath><clipPath id="1b176279e1"><path d="M 149.324219 -74.902344 L 449.902344 149.324219 L 225.675781 449.902344 L -74.902344 225.675781 Z M 149.324219 -74.902344 "/></clipPath><clipPath id="9bfd4cc426"><path d="M 149.324219 -74.902344 L 449.902344 149.324219 L 225.675781 449.902344 L -74.902344 225.675781 Z M 149.324219 -74.902344 "/></clipPath><clipPath id="508b514df9"><path d="M 149.324219 -74.902344 L 449.902344 149.324219 L 225.675781 449.902344 L -74.902344 225.675781 Z M 149.324219 -74.902344 "/></clipPath><clipPath id="f1b8009ef9"><path d="M 212 65 L 296 65 L 296 131 L 212 131 Z M 212 65 "/></clipPath><clipPath id="224f2436d9"><path d="M 149.324219 -74.902344 L 449.902344 149.324219 L 225.675781 449.902344 L -74.902344 225.675781 Z M 149.324219 -74.902344 "/></clipPath><clipPath id="a2410c9b0f"><path d="M 149.324219 -74.902344 L 449.902344 149.324219 L 225.675781 449.902344 L -74.902344 225.675781 Z M 149.324219 -74.902344 "/></clipPath><clipPath id="bd48b1bdb3"><path d="M 149.324219 -74.902344 L 449.902344 149.324219 L 225.675781 449.902344 L -74.902344 225.675781 Z M 149.324219 -74.902344 "/></clipPath><clipPath id="71d92cc32f"><path d="M 130 207 L 146 207 L 146 224 L 130 224 Z M 130 207 "/></clipPath><clipPath id="2db26c6721"><path d="M 149.324219 -74.902344 L 449.902344 149.324219 L 225.675781 449.902344 L -74.902344 225.675781 Z M 149.324219 -74.902344 "/></clipPath><clipPath id="a782261c99"><path d="M 149.324219 -74.902344 L 449.902344 149.324219 L 225.675781 449.902344 L -74.902344 225.675781 Z M 149.324219 -74.902344 "/></clipPath><clipPath id="6062604ca9"><path d="M 149.324219 -74.902344 L 449.902344 149.324219 L 225.675781 449.902344 L -74.902344 225.675781 Z M 149.324219 -74.902344 "/></clipPath><clipPath id="8a29c7dcd9"><path d="M 131 223 L 148 223 L 148 240 L 131 240 Z M 131 223 "/></clipPath><clipPath id="846e3f6d6b"><path d="M 149.324219 -74.902344 L 449.902344 149.324219 L 225.675781 449.902344 L -74.902344 225.675781 Z M 149.324219 -74.902344 "/></clipPath><clipPath id="fcc4e4b9bf"><path d="M 149.324219 -74.902344 L 449.902344 149.324219 L 225.675781 449.902344 L -74.902344 225.675781 Z M 149.324219 -74.902344 "/></clipPath><clipPath id="1bf19c6052"><path d="M 149.324219 -74.902344 L 449.902344 149.324219 L 225.675781 449.902344 L -74.902344 225.675781 Z M 149.324219 -74.902344 "/></clipPath><clipPath id="42806af333"><path d="M 147 243 L 164 243 L 164 260 L 147 260 Z M 147 243 "/></clipPath><clipPath id="a536a5c012"><path d="M 149.324219 -74.902344 L 449.902344 149.324219 L 225.675781 449.902344 L -74.902344 225.675781 Z M 149.324219 -74.902344 "/></clipPath><clipPath id="4fd59be79f"><path d="M 149.324219 -74.902344 L 449.902344 149.324219 L 225.675781 449.902344 L -74.902344 225.675781 Z M 149.324219 -74.902344 "/></clipPath><clipPath id="fedda76d74"><path d="M 149.324219 -74.902344 L 449.902344 149.324219 L 225.675781 449.902344 L -74.902344 225.675781 Z M 149.324219 -74.902344 "/></clipPath><clipPath id="716db33de8"><path d="M 56 79 L 285 79 L 285 348 L 56 348 Z M 56 79 "/></clipPath><clipPath id="41a4950665"><path d="M 149.324219 -74.902344 L 449.902344 149.324219 L 225.675781 449.902344 L -74.902344 225.675781 Z M 149.324219 -74.902344 "/></clipPath><clipPath id="3f38ba89aa"><path d="M 149.324219 -74.902344 L 449.902344 149.324219 L 225.675781 449.902344 L -74.902344 225.675781 Z M 149.324219 -74.902344 "/></clipPath><clipPath id="d798f2809f"><path d="M 149.324219 -74.902344 L 449.902344 149.324219 L 225.675781 449.902344 L -74.902344 225.675781 Z M 149.324219 -74.902344 "/></clipPath></defs><g id="3a009644ac"><g clip-rule="nonzero" clip-path="url(#89304665f5)"><g clip-rule="nonzero" clip-path="url(#555199374e)"><g clip-rule="nonzero" clip-path="url(#341d6fa0de)"><g clip-rule="nonzero" clip-path="url(#075768caa7)"><path style=" stroke:none;fill-rule:nonzero;fill:#E0F9FC;fill-opacity:1;" d="M 187.871094 217 L 197.046875 223.84375 L 190.199219 233.019531 L 181.027344 226.171875 Z M 187.871094 217 "/></g></g></g></g><g clip-rule="nonzero" clip-path="url(#9b1f07aaa1)"><g clip-rule="nonzero" clip-path="url(#5e6e45d112)"><g clip-rule="nonzero" clip-path="url(#f70c9cdf0c)"><g clip-rule="nonzero" clip-path="url(#2a44687e3c)"><path style=" stroke:none;fill-rule:nonzero;fill:#E0F9FC;fill-opacity:1;" d="M 189.34375 197.152344 L 197.910156 203.542969 L 191.0625 212.71875 L 182.5 206.328125 Z M 189.34375 197.152344 "/></g></g></g></g><g clip-rule="nonzero" clip-path="url(#fe97aa8928)"><g clip-rule="nonzero" clip-path="url(#8adf653597)"><g clip-rule="nonzero" clip-path="url(#c171e72fbb)"><g clip-rule="nonzero" clip-path="url(#11445f632f)"><path style=" stroke:none;fill-rule:nonzero;fill:#E0F9FC;fill-opacity:1;" d="M 165.101562 206.679688 L 176.113281 214.890625 L 169.269531 224.066406 L 158.257812 215.855469 Z M 165.101562 206.679688 "/></g></g></g></g><g clip-rule="nonzero" clip-path="url(#3d4f005332)"><g clip-rule="nonzero" clip-path="url(#a61b3f395f)"><g clip-rule="nonzero" clip-path="url(#9b53e5f3c0)"><g clip-rule="nonzero" clip-path="url(#70ce9f363c)"><path style=" stroke:none;fill-rule:nonzero;fill:#E0F9FC;fill-opacity:1;" d="M 83.25 307.472656 L 93.035156 314.773438 L 86.191406 323.945312 L 76.402344 316.644531 Z M 83.25 307.472656 "/></g></g></g></g><g clip-rule="nonzero" clip-path="url(#a565cf1667)"><g clip-rule="nonzero" clip-path="url(#363a516fe5)"><g clip-rule="nonzero" clip-path="url(#cf2b43b4fd)"><g clip-rule="nonzero" clip-path="url(#f08a31328a)"><path style=" stroke:none;fill-rule:nonzero;fill:#E0F9FC;fill-opacity:1;" d="M 224.042969 98.3125 L 233.21875 105.15625 L 202.1875 146.753906 L 193.011719 139.910156 Z M 224.042969 98.3125 "/></g></g></g></g><g clip-rule="nonzero" clip-path="url(#52163de043)"><g clip-rule="nonzero" clip-path="url(#7dc8deb0dc)"><g clip-rule="nonzero" clip-path="url(#206947dac8)"><g clip-rule="nonzero" clip-path="url(#d4993b64b5)"><path style=" stroke:none;fill-rule:nonzero;fill:#E0F9FC;fill-opacity:1;" d="M 185.710938 149.695312 L 194.886719 156.539062 L 187.585938 166.328125 L 178.410156 159.484375 Z M 185.710938 149.695312 "/></g></g></g></g><g clip-rule="nonzero" clip-path="url(#5227829e71)"><g clip-rule="nonzero" clip-path="url(#1b176279e1)"><g clip-rule="nonzero" clip-path="url(#9bfd4cc426)"><g clip-rule="nonzero" clip-path="url(#508b514df9)"><path style=" stroke:none;fill-rule:nonzero;fill:#E0F9FC;fill-opacity:1;" d="M 305.566406 107.71875 L 298.128906 102.171875 L 310.601562 94.53125 C 318.351562 89.789062 323.542969 81.535156 324.488281 72.460938 C 325.378906 63.882812 322.386719 55.652344 316.277344 49.886719 C 315.460938 49.113281 314.582031 48.378906 313.675781 47.699219 C 308.5625 43.886719 302.335938 41.914062 295.984375 41.996094 C 294.25 35.882812 290.585938 30.476562 285.472656 26.664062 C 284.566406 25.984375 283.609375 25.355469 282.632812 24.789062 C 275.367188 20.578125 266.628906 20.054688 258.65625 23.355469 C 250.226562 26.84375 243.796875 34.167969 241.457031 42.953125 L 237.691406 57.085938 L 230.328125 51.59375 L 223.484375 60.769531 L 298.722656 116.894531 Z M 304.625 84.769531 L 288.246094 94.796875 L 247.574219 64.457031 L 252.519531 45.898438 C 253.949219 40.539062 257.878906 36.066406 263.035156 33.929688 C 267.753906 31.976562 272.675781 32.246094 276.894531 34.695312 C 277.492188 35.039062 278.074219 35.421875 278.628906 35.835938 C 282.726562 38.890625 285.203125 43.457031 285.609375 48.695312 L 286.117188 55.222656 L 292.519531 53.847656 C 297.652344 52.746094 302.738281 53.820312 306.832031 56.875 C 307.386719 57.289062 307.921875 57.738281 308.421875 58.210938 C 311.96875 61.558594 313.628906 66.199219 313.101562 71.28125 C 312.523438 76.832031 309.355469 81.875 304.625 84.769531 Z M 304.625 84.769531 "/></g></g></g></g><g clip-rule="nonzero" clip-path="url(#f1b8009ef9)"><g clip-rule="nonzero" clip-path="url(#224f2436d9)"><g clip-rule="nonzero" clip-path="url(#a2410c9b0f)"><g clip-rule="nonzero" clip-path="url(#bd48b1bdb3)"><path style=" stroke:none;fill-rule:nonzero;fill:#E0F9FC;fill-opacity:1;" d="M 219.835938 65.664062 L 295.074219 121.789062 L 288.230469 130.964844 L 212.992188 74.835938 Z M 219.835938 65.664062 "/></g></g></g></g><g clip-rule="nonzero" clip-path="url(#71d92cc32f)"><g clip-rule="nonzero" clip-path="url(#2db26c6721)"><g clip-rule="nonzero" clip-path="url(#a782261c99)"><g clip-rule="nonzero" clip-path="url(#6062604ca9)"><path style=" stroke:none;fill-rule:nonzero;fill:#E0F9FC;fill-opacity:1;" d="M 136.867188 207.515625 L 145.433594 213.902344 L 138.585938 223.078125 L 130.023438 216.691406 Z M 136.867188 207.515625 "/></g></g></g></g><g clip-rule="nonzero" clip-path="url(#8a29c7dcd9)"><g clip-rule="nonzero" clip-path="url(#846e3f6d6b)"><g clip-rule="nonzero" clip-path="url(#fcc4e4b9bf)"><g clip-rule="nonzero" clip-path="url(#1bf19c6052)"><path style=" stroke:none;fill-rule:nonzero;fill:#E0F9FC;fill-opacity:1;" d="M 138.128906 223.6875 L 147.304688 230.535156 L 140.460938 239.710938 L 131.285156 232.863281 Z M 138.128906 223.6875 "/></g></g></g></g><g clip-rule="nonzero" clip-path="url(#42806af333)"><g clip-rule="nonzero" clip-path="url(#a536a5c012)"><g clip-rule="nonzero" clip-path="url(#4fd59be79f)"><g clip-rule="nonzero" clip-path="url(#fedda76d74)"><path style=" stroke:none;fill-rule:nonzero;fill:#E0F9FC;fill-opacity:1;" d="M 154.664062 243.640625 L 163.230469 250.03125 L 156.382812 259.203125 L 147.820312 252.816406 Z M 154.664062 243.640625 "/></g></g></g></g><g clip-rule="nonzero" clip-path="url(#716db33de8)"><g clip-rule="nonzero" clip-path="url(#41a4950665)"><g clip-rule="nonzero" clip-path="url(#3f38ba89aa)"><g clip-rule="nonzero" clip-path="url(#d798f2809f)"><path style=" stroke:none;fill-rule:nonzero;fill:#E0F9FC;fill-opacity:1;" d="M 226.078125 194.78125 C 224.390625 188.777344 220.796875 183.257812 215.421875 179.246094 C 202.480469 169.59375 184.132812 172.230469 174.511719 185.125 L 173.519531 186.457031 C 168.1875 193.605469 158.421875 195.03125 151.285156 189.707031 L 145.140625 185.125 L 218.753906 86.449219 L 209.578125 79.605469 L 65.824219 272.304688 C 50.40625 292.976562 54.675781 322.339844 75.347656 337.761719 C 96.019531 353.179688 125.382812 348.910156 140.800781 328.238281 L 284.554688 135.535156 L 275.378906 128.691406 Z M 148.835938 298.324219 L 126.371094 281.566406 L 119.527344 290.742188 L 141.988281 307.5 L 134.6875 317.285156 L 101.214844 292.316406 L 123.117188 262.953125 L 156.59375 287.925781 Z M 163.4375 278.75 L 120.785156 246.933594 L 106.183594 266.507812 L 100.679688 262.402344 L 93.835938 271.578125 L 99.339844 275.683594 L 85.195312 294.644531 L 127.382812 326.117188 C 123.8125 329.441406 119.667969 331.921875 115.234375 333.503906 L 116.273438 332.113281 L 107.097656 325.269531 L 100.253906 334.445312 L 101.734375 335.546875 C 94.898438 335.25 88.078125 332.976562 82.191406 328.585938 C 68.308594 318.230469 64.230469 299.554688 71.683594 284.566406 L 76.628906 288.257812 L 83.476562 279.082031 L 78.0625 275.046875 L 96.316406 250.578125 L 101.726562 254.617188 L 108.570312 245.441406 L 103.160156 241.402344 L 138.296875 194.304688 L 144.4375 198.886719 C 156.515625 207.894531 173.675781 205.390625 182.695312 193.300781 L 183.6875 191.972656 C 189.53125 184.136719 200.695312 182.546875 208.574219 188.425781 C 216.453125 194.300781 218.191406 205.347656 212.261719 213.300781 L 188.078125 245.71875 L 178.457031 238.546875 L 171.613281 247.722656 L 181.234375 254.894531 Z M 163.4375 278.75 "/></g></g></g></g><g style="fill:#E0F9FC;fill-opacity:1;"><g transform="translate(260.685873, 80.951798)"><path style="stroke:none" d="M 32.625 -7.625 L 40.671875 -1.125 L 36.15625 4.46875 L 28.109375 -2.03125 L 21.515625 6.125 L 15.6875 1.421875 L 22.28125 -6.734375 L 14.203125 -13.265625 L 18.71875 -18.859375 L 26.796875 -12.328125 L 33.390625 -20.5 L 39.21875 -15.796875 Z M 32.625 -7.625 "/></g></g></g></svg>